<mxfile host="Electron" agent="Mozilla/5.0 (Windows NT 10.0; Win64; x64) AppleWebKit/537.36 (KHTML, like Gecko) draw.io/26.2.15 Chrome/134.0.6998.205 Electron/35.2.1 Safari/537.36" version="26.2.15">
  <diagram name="Page-1" id="Iw8Ir4ZznVGdan9-ySgW">
    <mxGraphModel dx="3765" dy="849" grid="0" gridSize="10" guides="1" tooltips="1" connect="1" arrows="1" fold="1" page="1" pageScale="1" pageWidth="2339" pageHeight="3300" background="light-dark(#FFFFFF,#121212)" math="0" shadow="0">
      <root>
        <mxCell id="0" />
        <mxCell id="1" parent="0" />
        <mxCell id="6eJhf-mb-Ri2gtbTXvKm-2" style="edgeStyle=orthogonalEdgeStyle;rounded=0;orthogonalLoop=1;jettySize=auto;html=1;entryX=0.5;entryY=1;entryDx=0;entryDy=0;" parent="1" source="gpku5RTl24Qto2d15Wsa-9" target="6eJhf-mb-Ri2gtbTXvKm-1" edge="1">
          <mxGeometry relative="1" as="geometry" />
        </mxCell>
        <mxCell id="gpku5RTl24Qto2d15Wsa-9" value="ProgressTask" style="swimlane;fontStyle=1;align=center;verticalAlign=top;childLayout=stackLayout;horizontal=1;startSize=26;horizontalStack=0;resizeParent=1;resizeParentMax=0;resizeLast=0;collapsible=1;marginBottom=0;whiteSpace=wrap;html=1;fillColor=#fff2cc;strokeColor=#d6b656;" parent="1" vertex="1">
          <mxGeometry x="949.5" y="320" width="220" height="112" as="geometry">
            <mxRectangle x="960" y="175" width="80" height="30" as="alternateBounds" />
          </mxGeometry>
        </mxCell>
        <mxCell id="R2zVv1SdEEJf-kUYjYhK-3" value="+ progress : Progress" style="text;strokeColor=none;fillColor=none;align=left;verticalAlign=top;spacingLeft=4;spacingRight=4;overflow=hidden;rotatable=0;points=[[0,0.5],[1,0.5]];portConstraint=eastwest;whiteSpace=wrap;html=1;" parent="gpku5RTl24Qto2d15Wsa-9" vertex="1">
          <mxGeometry y="26" width="220" height="26" as="geometry" />
        </mxCell>
        <mxCell id="gpku5RTl24Qto2d15Wsa-11" value="" style="line;strokeWidth=1;fillColor=none;align=left;verticalAlign=middle;spacingTop=-1;spacingLeft=3;spacingRight=3;rotatable=0;labelPosition=right;points=[];portConstraint=eastwest;strokeColor=inherit;" parent="gpku5RTl24Qto2d15Wsa-9" vertex="1">
          <mxGeometry y="52" width="220" height="8" as="geometry" />
        </mxCell>
        <mxCell id="gpku5RTl24Qto2d15Wsa-12" value="+ run() : void" style="text;strokeColor=none;fillColor=none;align=left;verticalAlign=top;spacingLeft=4;spacingRight=4;overflow=hidden;rotatable=0;points=[[0,0.5],[1,0.5]];portConstraint=eastwest;whiteSpace=wrap;html=1;" parent="gpku5RTl24Qto2d15Wsa-9" vertex="1">
          <mxGeometry y="60" width="220" height="26" as="geometry" />
        </mxCell>
        <mxCell id="gpku5RTl24Qto2d15Wsa-17" value="+ getProgress() : Progress" style="text;strokeColor=none;fillColor=none;align=left;verticalAlign=top;spacingLeft=4;spacingRight=4;overflow=hidden;rotatable=0;points=[[0,0.5],[1,0.5]];portConstraint=eastwest;whiteSpace=wrap;html=1;" parent="gpku5RTl24Qto2d15Wsa-9" vertex="1">
          <mxGeometry y="86" width="220" height="26" as="geometry" />
        </mxCell>
        <mxCell id="gpku5RTl24Qto2d15Wsa-57" style="edgeStyle=orthogonalEdgeStyle;rounded=0;orthogonalLoop=1;jettySize=auto;html=1;entryX=1;entryY=0.5;entryDx=0;entryDy=0;" parent="1" source="gpku5RTl24Qto2d15Wsa-45" target="6eJhf-mb-Ri2gtbTXvKm-1" edge="1">
          <mxGeometry relative="1" as="geometry">
            <mxPoint x="1285" y="194" as="targetPoint" />
          </mxGeometry>
        </mxCell>
        <mxCell id="gpku5RTl24Qto2d15Wsa-45" value="FeaturesManager" style="swimlane;fontStyle=1;align=center;verticalAlign=top;childLayout=stackLayout;horizontal=1;startSize=26;horizontalStack=0;resizeParent=1;resizeParentMax=0;resizeLast=0;collapsible=1;marginBottom=0;whiteSpace=wrap;html=1;fillColor=#d5e8d4;strokeColor=#82b366;" parent="1" vertex="1">
          <mxGeometry x="1429" y="175" width="283" height="164" as="geometry">
            <mxRectangle x="1575" y="379" width="80" height="30" as="alternateBounds" />
          </mxGeometry>
        </mxCell>
        <mxCell id="gpku5RTl24Qto2d15Wsa-46" value="+ current : Thread" style="text;strokeColor=none;fillColor=none;align=left;verticalAlign=top;spacingLeft=4;spacingRight=4;overflow=hidden;rotatable=0;points=[[0,0.5],[1,0.5]];portConstraint=eastwest;whiteSpace=wrap;html=1;" parent="gpku5RTl24Qto2d15Wsa-45" vertex="1">
          <mxGeometry y="26" width="283" height="26" as="geometry" />
        </mxCell>
        <mxCell id="gpku5RTl24Qto2d15Wsa-47" value="" style="line;strokeWidth=1;fillColor=none;align=left;verticalAlign=middle;spacingTop=-1;spacingLeft=3;spacingRight=3;rotatable=0;labelPosition=right;points=[];portConstraint=eastwest;strokeColor=inherit;" parent="gpku5RTl24Qto2d15Wsa-45" vertex="1">
          <mxGeometry y="52" width="283" height="8" as="geometry" />
        </mxCell>
        <mxCell id="gpku5RTl24Qto2d15Wsa-48" value="+ newIncrementalBackup() : BackupProgress" style="text;strokeColor=none;fillColor=none;align=left;verticalAlign=top;spacingLeft=4;spacingRight=4;overflow=hidden;rotatable=0;points=[[0,0.5],[1,0.5]];portConstraint=eastwest;whiteSpace=wrap;html=1;" parent="gpku5RTl24Qto2d15Wsa-45" vertex="1">
          <mxGeometry y="60" width="283" height="26" as="geometry" />
        </mxCell>
        <mxCell id="gpku5RTl24Qto2d15Wsa-49" value="+ newCompleteBackup()" style="text;strokeColor=none;fillColor=none;align=left;verticalAlign=top;spacingLeft=4;spacingRight=4;overflow=hidden;rotatable=0;points=[[0,0.5],[1,0.5]];portConstraint=eastwest;whiteSpace=wrap;html=1;" parent="gpku5RTl24Qto2d15Wsa-45" vertex="1">
          <mxGeometry y="86" width="283" height="26" as="geometry" />
        </mxCell>
        <mxCell id="gpku5RTl24Qto2d15Wsa-50" value="+ interrupt()" style="text;strokeColor=none;fillColor=none;align=left;verticalAlign=top;spacingLeft=4;spacingRight=4;overflow=hidden;rotatable=0;points=[[0,0.5],[1,0.5]];portConstraint=eastwest;whiteSpace=wrap;html=1;" parent="gpku5RTl24Qto2d15Wsa-45" vertex="1">
          <mxGeometry y="112" width="283" height="26" as="geometry" />
        </mxCell>
        <mxCell id="gpku5RTl24Qto2d15Wsa-126" value="+ isRunning() : boolean" style="text;strokeColor=none;fillColor=none;align=left;verticalAlign=top;spacingLeft=4;spacingRight=4;overflow=hidden;rotatable=0;points=[[0,0.5],[1,0.5]];portConstraint=eastwest;whiteSpace=wrap;html=1;" parent="gpku5RTl24Qto2d15Wsa-45" vertex="1">
          <mxGeometry y="138" width="283" height="26" as="geometry" />
        </mxCell>
        <mxCell id="gpku5RTl24Qto2d15Wsa-58" value="New Thread" style="text;html=1;align=center;verticalAlign=middle;resizable=0;points=[];autosize=1;strokeColor=none;fillColor=none;fontStyle=1" parent="1" vertex="1">
          <mxGeometry x="1328" y="219" width="83" height="26" as="geometry" />
        </mxCell>
        <mxCell id="gpku5RTl24Qto2d15Wsa-59" value="ZipCreator" style="swimlane;fontStyle=1;align=center;verticalAlign=top;childLayout=stackLayout;horizontal=1;startSize=26;horizontalStack=0;resizeParent=1;resizeParentMax=0;resizeLast=0;collapsible=1;marginBottom=0;whiteSpace=wrap;html=1;fillColor=#dae8fc;strokeColor=#6c8ebf;" parent="1" vertex="1">
          <mxGeometry x="1295" y="975" width="220" height="164" as="geometry">
            <mxRectangle x="500" y="230" width="80" height="30" as="alternateBounds" />
          </mxGeometry>
        </mxCell>
        <mxCell id="gpku5RTl24Qto2d15Wsa-60" value="--" style="text;strokeColor=none;fillColor=none;align=left;verticalAlign=top;spacingLeft=4;spacingRight=4;overflow=hidden;rotatable=0;points=[[0,0.5],[1,0.5]];portConstraint=eastwest;whiteSpace=wrap;html=1;" parent="gpku5RTl24Qto2d15Wsa-59" vertex="1">
          <mxGeometry y="26" width="220" height="26" as="geometry" />
        </mxCell>
        <mxCell id="gpku5RTl24Qto2d15Wsa-61" value="" style="line;strokeWidth=1;fillColor=none;align=left;verticalAlign=middle;spacingTop=-1;spacingLeft=3;spacingRight=3;rotatable=0;labelPosition=right;points=[];portConstraint=eastwest;strokeColor=inherit;" parent="gpku5RTl24Qto2d15Wsa-59" vertex="1">
          <mxGeometry y="52" width="220" height="8" as="geometry" />
        </mxCell>
        <mxCell id="gpku5RTl24Qto2d15Wsa-62" value="+ create(BackupProgress) : &lt;b&gt;blocking&lt;/b&gt;" style="text;strokeColor=none;fillColor=none;align=left;verticalAlign=top;spacingLeft=4;spacingRight=4;overflow=hidden;rotatable=0;points=[[0,0.5],[1,0.5]];portConstraint=eastwest;whiteSpace=wrap;html=1;" parent="gpku5RTl24Qto2d15Wsa-59" vertex="1">
          <mxGeometry y="60" width="220" height="26" as="geometry" />
        </mxCell>
        <mxCell id="gpku5RTl24Qto2d15Wsa-77" value="+ getProgress() : 0 &amp;lt;= int &amp;lt;= 100" style="text;strokeColor=none;fillColor=none;align=left;verticalAlign=top;spacingLeft=4;spacingRight=4;overflow=hidden;rotatable=0;points=[[0,0.5],[1,0.5]];portConstraint=eastwest;whiteSpace=wrap;html=1;" parent="gpku5RTl24Qto2d15Wsa-59" vertex="1">
          <mxGeometry y="86" width="220" height="26" as="geometry" />
        </mxCell>
        <mxCell id="gpku5RTl24Qto2d15Wsa-76" value="+ getCurrentFile() : String" style="text;strokeColor=none;fillColor=none;align=left;verticalAlign=top;spacingLeft=4;spacingRight=4;overflow=hidden;rotatable=0;points=[[0,0.5],[1,0.5]];portConstraint=eastwest;whiteSpace=wrap;html=1;" parent="gpku5RTl24Qto2d15Wsa-59" vertex="1">
          <mxGeometry y="112" width="220" height="26" as="geometry" />
        </mxCell>
        <mxCell id="gpku5RTl24Qto2d15Wsa-75" value="+ getWorkingTask() : String" style="text;strokeColor=none;fillColor=none;align=left;verticalAlign=top;spacingLeft=4;spacingRight=4;overflow=hidden;rotatable=0;points=[[0,0.5],[1,0.5]];portConstraint=eastwest;whiteSpace=wrap;html=1;" parent="gpku5RTl24Qto2d15Wsa-59" vertex="1">
          <mxGeometry y="138" width="220" height="26" as="geometry" />
        </mxCell>
        <mxCell id="gpku5RTl24Qto2d15Wsa-74" style="edgeStyle=orthogonalEdgeStyle;rounded=0;orthogonalLoop=1;jettySize=auto;html=1;entryX=1;entryY=0.5;entryDx=0;entryDy=0;" parent="1" source="gpku5RTl24Qto2d15Wsa-68" target="gpku5RTl24Qto2d15Wsa-45" edge="1">
          <mxGeometry relative="1" as="geometry" />
        </mxCell>
        <mxCell id="gpku5RTl24Qto2d15Wsa-117" style="edgeStyle=orthogonalEdgeStyle;rounded=0;orthogonalLoop=1;jettySize=auto;html=1;entryX=0.5;entryY=1;entryDx=0;entryDy=0;" parent="1" source="gpku5RTl24Qto2d15Wsa-68" target="gpku5RTl24Qto2d15Wsa-116" edge="1">
          <mxGeometry relative="1" as="geometry" />
        </mxCell>
        <mxCell id="gpku5RTl24Qto2d15Wsa-68" value="BackupCreationController" style="swimlane;fontStyle=1;align=center;verticalAlign=top;childLayout=stackLayout;horizontal=1;startSize=26;horizontalStack=0;resizeParent=1;resizeParentMax=0;resizeLast=0;collapsible=1;marginBottom=0;whiteSpace=wrap;html=1;fillColor=#dae8fc;strokeColor=#6c8ebf;" parent="1" vertex="1">
          <mxGeometry x="1838" y="201" width="220" height="112" as="geometry">
            <mxRectangle x="2024" y="431" width="80" height="30" as="alternateBounds" />
          </mxGeometry>
        </mxCell>
        <mxCell id="gpku5RTl24Qto2d15Wsa-72" value="+ run():&lt;div&gt;&lt;span style=&quot;white-space: pre;&quot;&gt;&#x9;&lt;/span&gt;BackupManager.newXYZ()&lt;br&gt;&lt;/div&gt;&lt;div&gt;&lt;span style=&quot;white-space: pre;&quot;&gt;&#x9;&lt;/span&gt;Thread.exec(UpdateView())&lt;br&gt;&lt;/div&gt;&lt;div&gt;&lt;span style=&quot;white-space: pre;&quot;&gt;&#x9;&lt;/span&gt;dialog.setVisible(true)&lt;br&gt;&lt;/div&gt;" style="text;strokeColor=none;fillColor=none;align=left;verticalAlign=top;spacingLeft=4;spacingRight=4;overflow=hidden;rotatable=0;points=[[0,0.5],[1,0.5]];portConstraint=eastwest;whiteSpace=wrap;html=1;" parent="gpku5RTl24Qto2d15Wsa-68" vertex="1">
          <mxGeometry y="26" width="220" height="86" as="geometry" />
        </mxCell>
        <mxCell id="gpku5RTl24Qto2d15Wsa-93" style="edgeStyle=orthogonalEdgeStyle;rounded=0;orthogonalLoop=1;jettySize=auto;html=1;entryX=0;entryY=0.5;entryDx=0;entryDy=0;" parent="1" target="af5rpPUgEClJr7Gwhuwc-1" edge="1">
          <mxGeometry relative="1" as="geometry">
            <mxPoint x="1650" y="619" as="targetPoint" />
            <mxPoint x="1570" y="786" as="sourcePoint" />
          </mxGeometry>
        </mxCell>
        <mxCell id="tp6GPRBlOFEiudwdM4Ks-1" style="edgeStyle=orthogonalEdgeStyle;rounded=0;orthogonalLoop=1;jettySize=auto;html=1;entryX=0.5;entryY=1;entryDx=0;entryDy=0;" parent="1" source="gpku5RTl24Qto2d15Wsa-94" target="af5rpPUgEClJr7Gwhuwc-1" edge="1">
          <mxGeometry relative="1" as="geometry" />
        </mxCell>
        <mxCell id="gpku5RTl24Qto2d15Wsa-94" value="Zip4J&lt;div&gt;AddFolder /&lt;/div&gt;&lt;div&gt;AddFile&lt;/div&gt;" style="html=1;whiteSpace=wrap;fillColor=#f8cecc;strokeColor=#b85450;fontSize=14;" parent="1" vertex="1">
          <mxGeometry x="1629" y="1012.5" width="114" height="71" as="geometry" />
        </mxCell>
        <mxCell id="gpku5RTl24Qto2d15Wsa-95" style="edgeStyle=orthogonalEdgeStyle;rounded=0;orthogonalLoop=1;jettySize=auto;html=1;entryX=0;entryY=0.5;entryDx=0;entryDy=0;" parent="1" source="gpku5RTl24Qto2d15Wsa-62" target="gpku5RTl24Qto2d15Wsa-94" edge="1">
          <mxGeometry relative="1" as="geometry" />
        </mxCell>
        <mxCell id="gpku5RTl24Qto2d15Wsa-113" value="Create instance of" style="text;html=1;align=center;verticalAlign=middle;resizable=0;points=[];autosize=1;strokeColor=none;fillColor=none;" parent="1" vertex="1">
          <mxGeometry x="1491" y="752" width="115" height="26" as="geometry" />
        </mxCell>
        <mxCell id="gpku5RTl24Qto2d15Wsa-114" style="edgeStyle=orthogonalEdgeStyle;rounded=0;orthogonalLoop=1;jettySize=auto;html=1;entryX=0.5;entryY=0;entryDx=0;entryDy=0;" parent="1" target="gpku5RTl24Qto2d15Wsa-59" edge="1">
          <mxGeometry relative="1" as="geometry">
            <mxPoint x="1570" y="786" as="sourcePoint" />
          </mxGeometry>
        </mxCell>
        <mxCell id="gpku5RTl24Qto2d15Wsa-115" value="Call create passing created instance" style="text;html=1;align=center;verticalAlign=middle;resizable=0;points=[];autosize=1;strokeColor=none;fillColor=none;" parent="1" vertex="1">
          <mxGeometry x="1415" y="921" width="211" height="26" as="geometry" />
        </mxCell>
        <mxCell id="tp6GPRBlOFEiudwdM4Ks-2" style="edgeStyle=orthogonalEdgeStyle;rounded=0;orthogonalLoop=1;jettySize=auto;html=1;entryX=1;entryY=0.5;entryDx=0;entryDy=0;" parent="1" source="gpku5RTl24Qto2d15Wsa-116" target="af5rpPUgEClJr7Gwhuwc-1" edge="1">
          <mxGeometry relative="1" as="geometry">
            <Array as="points">
              <mxPoint x="2106" y="57" />
              <mxPoint x="2106" y="620" />
            </Array>
          </mxGeometry>
        </mxCell>
        <mxCell id="gpku5RTl24Qto2d15Wsa-116" value="UpdateView()&lt;div&gt;Loop BackupManager.isRunning()&lt;/div&gt;" style="html=1;whiteSpace=wrap;" parent="1" vertex="1">
          <mxGeometry x="1847" y="26" width="202" height="63" as="geometry" />
        </mxCell>
        <mxCell id="gpku5RTl24Qto2d15Wsa-118" value="New Thread" style="text;html=1;align=center;verticalAlign=middle;resizable=0;points=[];autosize=1;strokeColor=none;fillColor=none;fontStyle=1" parent="1" vertex="1">
          <mxGeometry x="1959" y="132" width="83" height="26" as="geometry" />
        </mxCell>
        <mxCell id="gpku5RTl24Qto2d15Wsa-122" value="Set Exception&lt;div&gt;Update progress&lt;/div&gt;&lt;div&gt;&lt;font style=&quot;color: rgb(204, 0, 0);&quot;&gt;&lt;b&gt;WRITE&lt;/b&gt;&lt;/font&gt;&lt;/div&gt;" style="text;html=1;align=center;verticalAlign=middle;resizable=0;points=[];autosize=1;strokeColor=none;fillColor=none;" parent="1" vertex="1">
          <mxGeometry x="1807" y="755" width="107" height="55" as="geometry" />
        </mxCell>
        <mxCell id="gpku5RTl24Qto2d15Wsa-124" value="Check for exceptions&lt;div&gt;Read progress info&lt;br&gt;&lt;div&gt;&lt;font style=&quot;color: rgb(0, 153, 153);&quot;&gt;&lt;b&gt;READ&lt;/b&gt;&lt;/font&gt;&lt;/div&gt;&lt;/div&gt;" style="text;html=1;align=center;verticalAlign=middle;resizable=0;points=[];autosize=1;strokeColor=none;fillColor=none;" parent="1" vertex="1">
          <mxGeometry x="1944" y="529" width="130" height="55" as="geometry" />
        </mxCell>
        <mxCell id="gpku5RTl24Qto2d15Wsa-125" value="CRITICAL SECTION" style="text;html=1;align=center;verticalAlign=middle;resizable=0;points=[];autosize=1;strokeColor=#b85450;fillColor=#f8cecc;fontStyle=1" parent="1" vertex="1">
          <mxGeometry x="1909" y="653" width="129" height="26" as="geometry" />
        </mxCell>
        <mxCell id="LHtd9iMyIXoTLovwjRlw-2" style="edgeStyle=orthogonalEdgeStyle;rounded=0;orthogonalLoop=1;jettySize=auto;html=1;entryX=0.5;entryY=1;entryDx=0;entryDy=0;" edge="1" parent="1" source="6eJhf-mb-Ri2gtbTXvKm-1" target="LHtd9iMyIXoTLovwjRlw-3">
          <mxGeometry relative="1" as="geometry">
            <mxPoint x="1059.5" y="137" as="targetPoint" />
          </mxGeometry>
        </mxCell>
        <mxCell id="6eJhf-mb-Ri2gtbTXvKm-1" value="MonitoredTask Interface" style="rounded=0;whiteSpace=wrap;html=1;fillColor=#dae8fc;strokeColor=#6c8ebf;" parent="1" vertex="1">
          <mxGeometry x="963" y="196" width="193" height="60" as="geometry" />
        </mxCell>
        <mxCell id="6eJhf-mb-Ri2gtbTXvKm-3" value="implements" style="text;html=1;align=center;verticalAlign=middle;resizable=0;points=[];autosize=1;strokeColor=none;fillColor=none;" parent="1" vertex="1">
          <mxGeometry x="1083" y="279" width="79" height="26" as="geometry" />
        </mxCell>
        <mxCell id="6eJhf-mb-Ri2gtbTXvKm-43" value="extends" style="text;html=1;align=center;verticalAlign=middle;resizable=0;points=[];autosize=1;strokeColor=none;fillColor=none;" parent="1" vertex="1">
          <mxGeometry x="597" y="586" width="60" height="26" as="geometry" />
        </mxCell>
        <mxCell id="iIXxiH4Mjqqw7877SlyV-17" style="edgeStyle=orthogonalEdgeStyle;rounded=0;orthogonalLoop=1;jettySize=auto;html=1;entryX=0;entryY=0.5;entryDx=0;entryDy=0;" parent="1" source="iIXxiH4Mjqqw7877SlyV-13" target="6eJhf-mb-Ri2gtbTXvKm-1" edge="1">
          <mxGeometry relative="1" as="geometry">
            <Array as="points">
              <mxPoint x="708" y="226" />
            </Array>
          </mxGeometry>
        </mxCell>
        <mxCell id="iIXxiH4Mjqqw7877SlyV-13" value="MonitoredTaskDecorator [ Abstract ]" style="swimlane;fontStyle=1;align=center;verticalAlign=top;childLayout=stackLayout;horizontal=1;startSize=26;horizontalStack=0;resizeParent=1;resizeParentMax=0;resizeLast=0;collapsible=1;marginBottom=0;whiteSpace=wrap;html=1;fillColor=#fff2cc;strokeColor=#d6b656;" parent="1" vertex="1">
          <mxGeometry x="552" y="313" width="294" height="110" as="geometry">
            <mxRectangle x="615" y="158" width="80" height="30" as="alternateBounds" />
          </mxGeometry>
        </mxCell>
        <mxCell id="iIXxiH4Mjqqw7877SlyV-14" value="MonitoredTask engine" style="text;strokeColor=none;fillColor=none;align=left;verticalAlign=top;spacingLeft=4;spacingRight=4;overflow=hidden;rotatable=0;points=[[0,0.5],[1,0.5]];portConstraint=eastwest;whiteSpace=wrap;html=1;" parent="iIXxiH4Mjqqw7877SlyV-13" vertex="1">
          <mxGeometry y="26" width="294" height="26" as="geometry" />
        </mxCell>
        <mxCell id="iIXxiH4Mjqqw7877SlyV-15" value="" style="line;strokeWidth=1;fillColor=none;align=left;verticalAlign=middle;spacingTop=-1;spacingLeft=3;spacingRight=3;rotatable=0;labelPosition=right;points=[];portConstraint=eastwest;strokeColor=inherit;" parent="iIXxiH4Mjqqw7877SlyV-13" vertex="1">
          <mxGeometry y="52" width="294" height="8" as="geometry" />
        </mxCell>
        <mxCell id="iIXxiH4Mjqqw7877SlyV-16" value="+ run() : void" style="text;strokeColor=none;fillColor=none;align=left;verticalAlign=top;spacingLeft=4;spacingRight=4;overflow=hidden;rotatable=0;points=[[0,0.5],[1,0.5]];portConstraint=eastwest;whiteSpace=wrap;html=1;" parent="iIXxiH4Mjqqw7877SlyV-13" vertex="1">
          <mxGeometry y="60" width="294" height="25" as="geometry" />
        </mxCell>
        <mxCell id="LHtd9iMyIXoTLovwjRlw-5" value="+ getProgress() : Progress" style="text;strokeColor=none;fillColor=none;align=left;verticalAlign=top;spacingLeft=4;spacingRight=4;overflow=hidden;rotatable=0;points=[[0,0.5],[1,0.5]];portConstraint=eastwest;whiteSpace=wrap;html=1;" vertex="1" parent="iIXxiH4Mjqqw7877SlyV-13">
          <mxGeometry y="85" width="294" height="25" as="geometry" />
        </mxCell>
        <mxCell id="iIXxiH4Mjqqw7877SlyV-18" value="implements" style="text;html=1;align=center;verticalAlign=middle;resizable=0;points=[];autosize=1;strokeColor=none;fillColor=none;" parent="1" vertex="1">
          <mxGeometry x="621" y="256" width="79" height="26" as="geometry" />
        </mxCell>
        <mxCell id="iIXxiH4Mjqqw7877SlyV-30" style="edgeStyle=orthogonalEdgeStyle;rounded=0;orthogonalLoop=1;jettySize=auto;html=1;entryX=1;entryY=0.25;entryDx=0;entryDy=0;" parent="1" source="iIXxiH4Mjqqw7877SlyV-19" target="iIXxiH4Mjqqw7877SlyV-23" edge="1">
          <mxGeometry relative="1" as="geometry" />
        </mxCell>
        <mxCell id="iIXxiH4Mjqqw7877SlyV-35" style="edgeStyle=orthogonalEdgeStyle;rounded=0;orthogonalLoop=1;jettySize=auto;html=1;entryX=0;entryY=0.5;entryDx=0;entryDy=0;" parent="1" source="iIXxiH4Mjqqw7877SlyV-19" target="gpku5RTl24Qto2d15Wsa-60" edge="1">
          <mxGeometry relative="1" as="geometry">
            <Array as="points">
              <mxPoint x="931" y="671" />
              <mxPoint x="931" y="1014" />
            </Array>
          </mxGeometry>
        </mxCell>
        <mxCell id="iIXxiH4Mjqqw7877SlyV-19" value="&lt;span style=&quot;font-weight: 700;&quot;&gt;IncrementalBackupTask&amp;nbsp;&lt;/span&gt;&lt;div&gt;&lt;span style=&quot;font-weight: 700;&quot;&gt;Create incremental backups using journal&lt;/span&gt;&lt;/div&gt;" style="rounded=0;whiteSpace=wrap;html=1;fillColor=#fff2cc;strokeColor=#d6b656;" parent="1" vertex="1">
          <mxGeometry x="534" y="624" width="263" height="94" as="geometry" />
        </mxCell>
        <mxCell id="iIXxiH4Mjqqw7877SlyV-31" style="edgeStyle=orthogonalEdgeStyle;rounded=0;orthogonalLoop=1;jettySize=auto;html=1;entryX=1;entryY=0.25;entryDx=0;entryDy=0;" parent="1" source="iIXxiH4Mjqqw7877SlyV-20" target="iIXxiH4Mjqqw7877SlyV-23" edge="1">
          <mxGeometry relative="1" as="geometry" />
        </mxCell>
        <mxCell id="iIXxiH4Mjqqw7877SlyV-20" value="&lt;span style=&quot;font-weight: 700;&quot;&gt;IntegrityVerificationTask&amp;nbsp;&lt;/span&gt;&lt;div&gt;&lt;b&gt;Check integrity of backups&lt;/b&gt;&lt;/div&gt;" style="rounded=0;whiteSpace=wrap;html=1;fillColor=#fff2cc;strokeColor=#d6b656;" parent="1" vertex="1">
          <mxGeometry x="534" y="913" width="263" height="94" as="geometry" />
        </mxCell>
        <mxCell id="iIXxiH4Mjqqw7877SlyV-21" style="edgeStyle=orthogonalEdgeStyle;rounded=0;orthogonalLoop=1;jettySize=auto;html=1;entryX=0.5;entryY=1;entryDx=0;entryDy=0;" parent="1" source="iIXxiH4Mjqqw7877SlyV-19" target="9kIHnSr52BMBlR-CXQLW-1" edge="1">
          <mxGeometry relative="1" as="geometry" />
        </mxCell>
        <mxCell id="iIXxiH4Mjqqw7877SlyV-22" style="edgeStyle=orthogonalEdgeStyle;rounded=0;orthogonalLoop=1;jettySize=auto;html=1;entryX=1;entryY=0.5;entryDx=0;entryDy=0;" parent="1" source="iIXxiH4Mjqqw7877SlyV-20" target="LHtd9iMyIXoTLovwjRlw-5" edge="1">
          <mxGeometry relative="1" as="geometry">
            <mxPoint x="810" y="410" as="targetPoint" />
            <Array as="points">
              <mxPoint x="665" y="806" />
              <mxPoint x="861" y="806" />
              <mxPoint x="861" y="414" />
            </Array>
          </mxGeometry>
        </mxCell>
        <mxCell id="iIXxiH4Mjqqw7877SlyV-23" value="JournalManager" style="swimlane;fontStyle=1;align=center;verticalAlign=top;childLayout=stackLayout;horizontal=1;startSize=26;horizontalStack=0;resizeParent=1;resizeParentMax=0;resizeLast=0;collapsible=1;marginBottom=0;whiteSpace=wrap;html=1;fillColor=#fff2cc;strokeColor=#d6b656;" parent="1" vertex="1">
          <mxGeometry x="149" y="684" width="270" height="122" as="geometry">
            <mxRectangle x="840" y="435" width="112" height="26" as="alternateBounds" />
          </mxGeometry>
        </mxCell>
        <mxCell id="iIXxiH4Mjqqw7877SlyV-26" value="+ makeComplete() : Journal" style="text;strokeColor=none;fillColor=none;align=left;verticalAlign=top;spacingLeft=4;spacingRight=4;overflow=hidden;rotatable=0;points=[[0,0.5],[1,0.5]];portConstraint=eastwest;whiteSpace=wrap;html=1;" parent="iIXxiH4Mjqqw7877SlyV-23" vertex="1">
          <mxGeometry y="26" width="270" height="24" as="geometry" />
        </mxCell>
        <mxCell id="daQ1eilBILnPda18mAKV-5" style="edgeStyle=orthogonalEdgeStyle;rounded=0;orthogonalLoop=1;jettySize=auto;html=1;" parent="iIXxiH4Mjqqw7877SlyV-23" source="iIXxiH4Mjqqw7877SlyV-28" edge="1">
          <mxGeometry relative="1" as="geometry">
            <mxPoint x="-176" y="62" as="targetPoint" />
          </mxGeometry>
        </mxCell>
        <mxCell id="iIXxiH4Mjqqw7877SlyV-28" value="+ makePartial() : Journal" style="text;strokeColor=none;fillColor=none;align=left;verticalAlign=top;spacingLeft=4;spacingRight=4;overflow=hidden;rotatable=0;points=[[0,0.5],[1,0.5]];portConstraint=eastwest;whiteSpace=wrap;html=1;" parent="iIXxiH4Mjqqw7877SlyV-23" vertex="1">
          <mxGeometry y="50" width="270" height="24" as="geometry" />
        </mxCell>
        <mxCell id="iIXxiH4Mjqqw7877SlyV-27" value="+ partialAsList() : List&amp;lt;CombinedPath&amp;gt;" style="text;strokeColor=none;fillColor=none;align=left;verticalAlign=top;spacingLeft=4;spacingRight=4;overflow=hidden;rotatable=0;points=[[0,0.5],[1,0.5]];portConstraint=eastwest;whiteSpace=wrap;html=1;" parent="iIXxiH4Mjqqw7877SlyV-23" vertex="1">
          <mxGeometry y="74" width="270" height="24" as="geometry" />
        </mxCell>
        <mxCell id="iIXxiH4Mjqqw7877SlyV-37" value="+ makePersistent(Journal) : void" style="text;strokeColor=none;fillColor=none;align=left;verticalAlign=top;spacingLeft=4;spacingRight=4;overflow=hidden;rotatable=0;points=[[0,0.5],[1,0.5]];portConstraint=eastwest;whiteSpace=wrap;html=1;" parent="iIXxiH4Mjqqw7877SlyV-23" vertex="1">
          <mxGeometry y="98" width="270" height="24" as="geometry" />
        </mxCell>
        <mxCell id="iIXxiH4Mjqqw7877SlyV-29" value="extends" style="text;html=1;align=center;verticalAlign=middle;resizable=0;points=[];autosize=1;strokeColor=none;fillColor=none;" parent="1" vertex="1">
          <mxGeometry x="687" y="839" width="60" height="26" as="geometry" />
        </mxCell>
        <mxCell id="iIXxiH4Mjqqw7877SlyV-32" value="use" style="text;html=1;align=center;verticalAlign=middle;resizable=0;points=[];autosize=1;strokeColor=none;fillColor=none;" parent="1" vertex="1">
          <mxGeometry x="452" y="641" width="37" height="26" as="geometry" />
        </mxCell>
        <mxCell id="iIXxiH4Mjqqw7877SlyV-34" value="use" style="text;html=1;align=center;verticalAlign=middle;resizable=0;points=[];autosize=1;strokeColor=none;fillColor=none;" parent="1" vertex="1">
          <mxGeometry x="29" y="714" width="37" height="26" as="geometry" />
        </mxCell>
        <mxCell id="iIXxiH4Mjqqw7877SlyV-36" value="use" style="text;html=1;align=center;verticalAlign=middle;resizable=0;points=[];autosize=1;strokeColor=none;fillColor=none;" parent="1" vertex="1">
          <mxGeometry x="946" y="671" width="37" height="26" as="geometry" />
        </mxCell>
        <mxCell id="9kIHnSr52BMBlR-CXQLW-1" value="&lt;b&gt;BackupInitializationTask&lt;/b&gt;&lt;div&gt;&lt;b&gt;Makes backup following current loaded strategy philosofy&lt;/b&gt;&lt;/div&gt;" style="rounded=0;whiteSpace=wrap;html=1;fillColor=#fff2cc;strokeColor=#d6b656;" parent="1" vertex="1">
          <mxGeometry x="534" y="472" width="263" height="94" as="geometry" />
        </mxCell>
        <mxCell id="9kIHnSr52BMBlR-CXQLW-2" style="edgeStyle=orthogonalEdgeStyle;rounded=0;orthogonalLoop=1;jettySize=auto;html=1;entryX=0.388;entryY=1.04;entryDx=0;entryDy=0;entryPerimeter=0;" parent="1" source="9kIHnSr52BMBlR-CXQLW-1" target="LHtd9iMyIXoTLovwjRlw-5" edge="1">
          <mxGeometry relative="1" as="geometry" />
        </mxCell>
        <mxCell id="af5rpPUgEClJr7Gwhuwc-1" value="BackupProgress&lt;div&gt;See Progress Diagram&lt;/div&gt;" style="rounded=0;whiteSpace=wrap;html=1;fillColor=#e1d5e7;strokeColor=#9673a6;" parent="1" vertex="1">
          <mxGeometry x="1685" y="590" width="193" height="60" as="geometry" />
        </mxCell>
        <mxCell id="daQ1eilBILnPda18mAKV-1" value="CompleteJournalFactory" style="swimlane;fontStyle=1;align=center;verticalAlign=top;childLayout=stackLayout;horizontal=1;startSize=26;horizontalStack=0;resizeParent=1;resizeParentMax=0;resizeLast=0;collapsible=1;marginBottom=0;whiteSpace=wrap;html=1;fillColor=#fff2cc;strokeColor=#d6b656;" parent="1" vertex="1">
          <mxGeometry x="-370" y="684" width="296" height="56" as="geometry">
            <mxRectangle x="840" y="435" width="112" height="26" as="alternateBounds" />
          </mxGeometry>
        </mxCell>
        <mxCell id="daQ1eilBILnPda18mAKV-2" value="+make() : Journal" style="text;strokeColor=none;fillColor=none;align=left;verticalAlign=top;spacingLeft=4;spacingRight=4;overflow=hidden;rotatable=0;points=[[0,0.5],[1,0.5]];portConstraint=eastwest;whiteSpace=wrap;html=1;" parent="daQ1eilBILnPda18mAKV-1" vertex="1">
          <mxGeometry y="26" width="296" height="30" as="geometry" />
        </mxCell>
        <mxCell id="daQ1eilBILnPda18mAKV-3" value="PartialJournalFactory" style="swimlane;fontStyle=1;align=center;verticalAlign=top;childLayout=stackLayout;horizontal=1;startSize=26;horizontalStack=0;resizeParent=1;resizeParentMax=0;resizeLast=0;collapsible=1;marginBottom=0;whiteSpace=wrap;html=1;fillColor=#fff2cc;strokeColor=#d6b656;" parent="1" vertex="1">
          <mxGeometry x="-370" y="749" width="296" height="56" as="geometry">
            <mxRectangle x="840" y="435" width="112" height="26" as="alternateBounds" />
          </mxGeometry>
        </mxCell>
        <mxCell id="daQ1eilBILnPda18mAKV-4" value="+make(Journal completeJ) : Journal" style="text;strokeColor=none;fillColor=none;align=left;verticalAlign=top;spacingLeft=4;spacingRight=4;overflow=hidden;rotatable=0;points=[[0,0.5],[1,0.5]];portConstraint=eastwest;whiteSpace=wrap;html=1;" parent="daQ1eilBILnPda18mAKV-3" vertex="1">
          <mxGeometry y="26" width="296" height="30" as="geometry" />
        </mxCell>
        <mxCell id="LHtd9iMyIXoTLovwjRlw-1" value="implements" style="text;html=1;align=center;verticalAlign=middle;resizable=0;points=[];autosize=1;strokeColor=none;fillColor=none;" vertex="1" parent="1">
          <mxGeometry x="1069" y="158" width="79" height="26" as="geometry" />
        </mxCell>
        <mxCell id="LHtd9iMyIXoTLovwjRlw-3" value="java.lang.Runnable" style="rounded=0;whiteSpace=wrap;html=1;fillColor=#d80073;strokeColor=#A50040;fontColor=#ffffff;" vertex="1" parent="1">
          <mxGeometry x="963" y="69" width="193" height="60" as="geometry" />
        </mxCell>
      </root>
    </mxGraphModel>
  </diagram>
</mxfile>
